<?xml version="1.0" encoding="utf-8"?>
<!-- Generator: Adobe Illustrator 27.4.0, SVG Export Plug-In . SVG Version: 6.00 Build 0)  -->
<svg version="1.1" id="Layer_1" xmlns="http://www.w3.org/2000/svg" xmlns:xlink="http://www.w3.org/1999/xlink" x="0px" y="0px"
	 viewBox="0 0 24 24" style="enable-background:new 0 0 24 24;" xml:space="preserve">
<style type="text/css">
	.st0{fill:#FFFFFF;}
</style>
<path class="st0" d="M10,21h4c0,1.1-0.9,2-2,2S10,22.1,10,21 M21,19v1H3v-1l2-2v-6c0-3.1,2-5.8,5-6.7V4c0-1.1,0.9-2,2-2s2,0.9,2,2
	v0.3c3,0.9,5,3.6,5,6.7v6L21,19 M17,11c0-2.8-2.2-5-5-5s-5,2.2-5,5v7h10V11z"/>
</svg>
