<?xml version="1.0" encoding="utf-8"?>
<!-- Generator: Adobe Illustrator 27.4.0, SVG Export Plug-In . SVG Version: 6.00 Build 0)  -->
<svg version="1.1" id="Layer_1" xmlns="http://www.w3.org/2000/svg" xmlns:xlink="http://www.w3.org/1999/xlink" x="0px" y="0px"
	 viewBox="0 0 24 24" style="enable-background:new 0 0 24 24;" xml:space="preserve">
<style type="text/css">
	.st0{fill:#FFFFFF;}
</style>
<path class="st0" d="M12,1L3,5v6c0,5.5,3.8,10.7,9,12c5.2-1.3,9-6.5,9-12V5L12,1 M12,7c1.4,0,2.8,1.1,2.8,2.5V11
	c0.6,0,1.2,0.6,1.2,1.3v3.5c0,0.6-0.6,1.2-1.3,1.2H9.2C8.6,17,8,16.4,8,15.7v-3.5C8,11.6,8.6,11,9.2,11V9.5C9.2,8.1,10.6,7,12,7
	 M12,8.2c-0.8,0-1.5,0.5-1.5,1.3V11h3V9.5C13.5,8.7,12.8,8.2,12,8.2z"/>
</svg>
